<?xml version="1.0" standalone="no"?>
<!DOCTYPE svg PUBLIC "-//W3C//DTD SVG 20010904//EN"
 "http://www.w3.org/TR/2001/REC-SVG-20010904/DTD/svg10.dtd">
<svg version="1.0" xmlns="http://www.w3.org/2000/svg"
 width="500.000000pt" height="500.000000pt" viewBox="0 0 500.000000 500.000000"
 preserveAspectRatio="xMidYMid meet">
<metadata>
Created by potrace 1.16, written by Peter Selinger 2001-2019
</metadata>
<g transform="translate(0.000000,500.000000) scale(0.100000,-0.100000)"
fill="#000000" stroke="none">
<path d="M2535 2973 c-72 -37 -105 -88 -105 -158 0 -50 9 -70 82 -191 57 -93
68 -144 44 -196 -44 -93 -192 -96 -260 -5 -17 24 -21 42 -20 108 1 58 -2 79
-12 79 -12 0 -114 -177 -114 -199 0 -20 26 -11 40 14 17 32 26 31 44 -2 48
-93 172 -136 288 -101 55 16 114 79 134 142 15 48 15 57 1 107 -9 30 -33 79
-53 109 -85 129 -94 178 -43 229 25 25 39 31 73 31 104 0 141 -38 133 -137 -7
-86 12 -82 71 15 45 73 49 97 10 73 -18 -11 -23 -9 -51 24 -17 21 -49 46 -71
56 -51 23 -149 24 -191 2z"/>
</g>
</svg>
